<svg xmlns="http://www.w3.org/2000/svg" viewBox="0 0 1831 1831" width="32" height="32">
<path fill="#00696a" d="M-0.5,383.5C-0.5,372.5-0.5,361.5-0.5,350.5C4.2,316.6 20.9,290.4 49.5,272C60.9,266.2 72.9,262.2 85.5,260C258.8,259.3 432.2,259.3 605.5,260C637,267.7 661.3,285.2 678.5,312.5C710.8,376 743.3,439.3 776,502.5C790.3,538.4 789.9,574.1 775,609.5C748.1,658.5 707.6,676 653.5,662C630.3,651.8 612.5,635.6 600,613.5C578.7,572.6 557.7,531.6 537,490.5C535.7,489.8 534.6,489 533.5,488C452.2,487.3 370.8,487.3 289.5,488C285.9,489.2 283.9,491.7 283.5,495.5C427.7,776.6 571.9,1057.6 716,1338.5C717.2,1339.7 718.3,1340.8 719.5,1342C785.4,1343.2 851.4,1343.7 917.5,1343.5C983.6,1343.7 1049.6,1343.2 1115.5,1342C1117.4,1340.4 1118.9,1338.6 1120,1336.5C1162.2,1253.7 1204.7,1171 1247.5,1088.5C1276.8,1047.8 1315.4,1035 1363.5,1050C1396.5,1066 1417.3,1091.8 1426,1127.5C1431.5,1153.7 1429.5,1179.4 1420,1204.5C1366.7,1308.4 1313.4,1412.4 1260,1516.5C1243.8,1545.7 1219.3,1563.9 1186.5,1571C1006.5,1571.7 826.5,1571.7 646.5,1571C614.1,1563.3 589.3,1545.1 572,1516.5C388.2,1157.7 203.9,799 19,440.5C9.2,422.6 2.7,403.6-0.5,383.5Z"/>
<path fill="#00696a" d="M1830.5,364.5C1830.5,371.8 1830.5,379.2 1830.5,386.5C1828.9,400.2 1825.4,413.6 1820,426.5C1764.4,534.4 1708.7,642.4 1653,750.5C1619.7,795.1 1577.6,806.3 1526.5,784C1495.1,763.7 1476.9,734.8 1472,697.5C1469.7,676.2 1472.4,655.5 1480,635.5C1503.3,590.2 1526.6,544.9 1550,499.5C1551.8,493.9 1549.9,490.1 1544.5,488C1462.8,487 1381.1,487.3 1299.5,489C1298.3,490.2 1297.2,491.3 1296,492.5C1172.6,734.2 1048.4,975.3 923.5,1216C917.3,1218.8 912.2,1217.6 908,1212.5C871.4,1141.2 834.7,1069.9 798,998.5C796.6,991.1 797.6,984.1 801,977.5C918.3,756.3 1035.6,535 1153,313.5C1170.2,285.5 1194.7,267.7 1226.5,260C1399.2,259.3 1571.8,259.3 1744.5,260C1768.1,265.1 1787.6,277 1803,295.5C1818.5,316 1827.7,339 1830.5,364.5Z"/>
</svg>
